<svg xmlns="http://www.w3.org/2000/svg" width="414" height="322" viewBox="0 0 414 322">
    <path fill="#FFF" fill-rule="nonzero" d="M285.078 154.229c-13.973 0-25.855-4.892-35.634-14.671-9.787-9.787-14.678-21.659-14.678-35.638V3.31c0-13.982 4.891-25.854 14.672-35.64C259.222-42.11 271.099-47 285.072-47h100.62c13.973 0 25.854 4.89 35.637 14.67C431.111-22.544 436-10.672 436 3.31v184.457c0 18.166-3.538 35.504-10.613 52.012-7.075 16.509-16.636 30.788-28.69 42.837-12.055 12.054-26.333 21.619-42.84 28.695-16.51 7.07-33.843 10.612-52.011 10.612h-16.768c-4.542 0-8.47-1.663-11.79-4.978-3.318-3.32-4.978-7.252-4.978-11.793V271.61c0-4.542 1.66-8.47 4.978-11.79 3.32-3.318 7.249-4.978 11.79-4.978h16.768c18.515 0 34.325-6.551 47.427-19.65 13.102-13.102 19.654-28.91 19.654-47.426v-8.381c0-6.99-2.448-12.928-7.336-17.82-4.892-4.891-10.832-7.336-17.82-7.336h-58.693zM14.664 139.558C4.884 129.77-.001 117.9 0 103.92V3.31c0-13.982 4.883-25.854 14.67-35.64C24.45-42.11 36.327-47 50.303-47h100.614c13.976 0 25.854 4.89 35.634 14.67 9.78 9.786 14.673 21.658 14.673 35.64v184.457c0 18.166-3.542 35.504-10.615 52.012-7.072 16.509-16.639 30.788-28.693 42.837-12.055 12.054-26.328 21.619-42.833 28.695-16.514 7.07-33.843 10.612-52.022 10.612H50.297c-4.543 0-8.475-1.663-11.791-4.978-3.317-3.32-4.982-7.252-4.982-11.793V271.61c0-4.542 1.666-8.47 4.982-11.79 3.317-3.318 7.249-4.978 11.79-4.978h16.765c18.525 0 34.333-6.551 47.43-19.65 13.097-13.102 19.648-28.91 19.648-47.426v-8.381c0-6.99-2.443-12.928-7.336-17.82-4.883-4.891-10.83-7.336-17.813-7.336H50.298c-13.977 0-25.855-4.892-35.634-14.671z" opacity=".2"/>
</svg>
